<?xml version="1.0" encoding="UTF-8" standalone="no"?>
<!-- Created with Inkscape (http://www.inkscape.org/) -->

<svg
   xmlns:dc="http://purl.org/dc/elements/1.1/"
   xmlns:cc="http://creativecommons.org/ns#"
   xmlns:rdf="http://www.w3.org/1999/02/22-rdf-syntax-ns#"
   xmlns:svg="http://www.w3.org/2000/svg"
   xmlns="http://www.w3.org/2000/svg"
   xmlns:sodipodi="http://sodipodi.sourceforge.net/DTD/sodipodi-0.dtd"
   xmlns:inkscape="http://www.inkscape.org/namespaces/inkscape"
   id="svg2"
   version="1.1"
   inkscape:version="0.91 r13725"
   xml:space="preserve"
   width="2551.175"
   height="1523.625"
   viewBox="0 0 2551.175 1523.625"
   sodipodi:docname="bottom-center.svg"><metadata
     id="metadata8"><rdf:RDF><cc:Work
         rdf:about=""><dc:format>image/svg+xml</dc:format><dc:type
           rdf:resource="http://purl.org/dc/dcmitype/StillImage" /><dc:title></dc:title></cc:Work></rdf:RDF></metadata><defs
     id="defs6" /><sodipodi:namedview
     pagecolor="#ffffff"
     bordercolor="#666666"
     borderopacity="1"
     objecttolerance="10"
     gridtolerance="10"
     guidetolerance="10"
     inkscape:pageopacity="0"
     inkscape:pageshadow="2"
     inkscape:window-width="1440"
     inkscape:window-height="852"
     id="namedview4"
     showgrid="false"
     inkscape:zoom="0.14385528"
     inkscape:cx="1275.5875"
     inkscape:cy="761.8125"
     inkscape:window-x="0"
     inkscape:window-y="0"
     inkscape:window-maximized="1"
     inkscape:current-layer="g10" /><g
     id="g10"
     inkscape:groupmode="layer"
     inkscape:label="bottom-center"
     transform="matrix(1.25,0,0,-1.25,0,1523.625)"><g
       id="g12"
       transform="translate(715.5593,816.4725)"
       style="fill:none;stroke:#0000ff;stroke-width:0.28346457;stroke-miterlimit:4;stroke-dasharray:none"><path
         d="M 0,0 13,-22.501 13.818,-23.919 13,-25.337 0,-47.854 l 13.264,-7.659 13.004,22.523 0.818,1.417 1.636,0 25.994,0 0,15.307 -25.994,0 -1.636,0 -0.818,1.417 L 13.271,7.662 0,0 Z"
         style="fill:none;fill-opacity:1;fill-rule:nonzero;stroke:#0000ff;stroke-width:0.28346457;stroke-miterlimit:4;stroke-dasharray:none"
         id="path14"
         inkscape:connector-curvature="0" /></g><g
       id="g16"
       transform="translate(477.3382,768.6263)"
       style="fill:none;stroke:#0000ff;stroke-width:0.28346457;stroke-miterlimit:4;stroke-dasharray:none"><path
         d="m 0,0 -13,22.501 -0.818,1.418 0.818,1.417 13,22.518 -13.264,7.658 -13.004,-22.522 -0.817,-1.417 -1.637,0 -25.994,0 0,-15.307 25.994,0 1.637,0 0.817,-1.418 12.997,-22.51 L 0,0 Z"
         style="fill:none;fill-opacity:1;fill-rule:nonzero;stroke:#0000ff;stroke-width:0.28346457;stroke-miterlimit:4;stroke-dasharray:none"
         id="path18"
         inkscape:connector-curvature="0" /></g><g
       id="g20"
       transform="translate(1140.8865,816.4725)"
       style="fill:none;stroke:#0000ff;stroke-width:0.28346457;stroke-miterlimit:4;stroke-dasharray:none"><path
         d="m 0,0 12.999,-22.501 0.819,-1.418 -0.818,-1.418 -13.001,-22.517 13.265,-7.659 13.003,22.523 0.818,1.417 1.637,0 25.994,0 0,15.307 -25.994,0 -1.637,0 -0.818,1.417 L 13.271,7.662 0,0 Z"
         style="fill:none;fill-opacity:1;fill-rule:nonzero;stroke:#0000ff;stroke-width:0.28346457;stroke-miterlimit:4;stroke-dasharray:none"
         id="path22"
         inkscape:connector-curvature="0" /></g><g
       id="g24"
       transform="translate(902.6648,768.6263)"
       style="fill:none;stroke:#0000ff;stroke-width:0.28346457;stroke-miterlimit:4;stroke-dasharray:none"><path
         d="m 0,0 -12.999,22.501 -0.819,1.418 0.818,1.417 13.001,22.518 -13.265,7.658 -13.003,-22.522 -0.818,-1.417 -1.637,0 -25.994,0 0,-15.307 25.994,0 1.637,0 0.818,-1.418 12.996,-22.51 L 0,0 Z"
         style="fill:none;fill-opacity:1;fill-rule:nonzero;stroke:#0000ff;stroke-width:0.28346457;stroke-miterlimit:4;stroke-dasharray:none"
         id="path26"
         inkscape:connector-curvature="0" /></g><g
       id="g28"
       transform="translate(1566.2136,816.4725)"
       style="fill:none;stroke:#0000ff;stroke-width:0.28346457;stroke-miterlimit:4;stroke-dasharray:none"><path
         d="m 0,0 13,-22.501 0.818,-1.418 -0.818,-1.418 -13.001,-22.517 13.265,-7.659 13.003,22.523 0.818,1.417 1.637,0 25.994,0 0,15.307 -25.994,0 -1.637,0 -0.818,1.417 L 13.271,7.662 0,0 Z"
         style="fill:none;fill-opacity:1;fill-rule:nonzero;stroke:#0000ff;stroke-width:0.28346457;stroke-miterlimit:4;stroke-dasharray:none"
         id="path30"
         inkscape:connector-curvature="0" /></g><g
       id="g32"
       transform="translate(1327.9924,768.6263)"
       style="fill:none;stroke:#0000ff;stroke-width:0.28346457;stroke-miterlimit:4;stroke-dasharray:none"><path
         d="m 0,0 -13,22.501 -0.818,1.418 0.818,1.417 13,22.518 -13.264,7.658 -13.004,-22.522 -0.818,-1.417 -1.636,0 -25.994,0 0,-15.307 25.994,0 1.636,0 0.818,-1.418 12.997,-22.51 L 0,0 Z"
         style="fill:none;fill-opacity:1;fill-rule:nonzero;stroke:#0000ff;stroke-width:0.28346457;stroke-miterlimit:4;stroke-dasharray:none"
         id="path34"
         inkscape:connector-curvature="0" /></g><g
       id="g36"
       transform="translate(928.2229,693.6995)"
       style="fill:none;stroke:#0000ff;stroke-width:0.28346457;stroke-miterlimit:4;stroke-dasharray:none"><path
         d="M 0,0 13,-22.501 13.818,-23.919 13,-25.337 0,-47.854 l 13.264,-7.659 13.004,22.523 0.818,1.417 1.636,0 25.994,0 0,15.307 -25.994,0 -1.636,0 -0.818,1.417 L 13.271,7.662 0,0 Z"
         style="fill:none;fill-opacity:1;fill-rule:nonzero;stroke:#0000ff;stroke-width:0.28346457;stroke-miterlimit:4;stroke-dasharray:none"
         id="path38"
         inkscape:connector-curvature="0" /></g><g
       id="g40"
       transform="translate(502.8953,693.6995)"
       style="fill:none;stroke:#0000ff;stroke-width:0.28346457;stroke-miterlimit:4;stroke-dasharray:none"><path
         d="M 0,0 12.999,-22.501 13.818,-23.919 13,-25.337 0,-47.854 l 13.264,-7.659 13.004,22.523 0.818,1.417 1.636,0 25.994,0 0,15.307 -25.994,0 -1.636,0 -0.818,1.417 L 13.271,7.662 0,0 Z"
         style="fill:none;fill-opacity:1;fill-rule:nonzero;stroke:#0000ff;stroke-width:0.28346457;stroke-miterlimit:4;stroke-dasharray:none"
         id="path42"
         inkscape:connector-curvature="0" /></g><g
       id="g44"
       transform="translate(690.0017,645.8533)"
       style="fill:none;stroke:#0000ff;stroke-width:0.28346457;stroke-miterlimit:4;stroke-dasharray:none"><path
         d="m 0,0 -13,22.501 -0.818,1.418 0.818,1.417 13,22.518 -13.264,7.658 -13.004,-22.522 -0.817,-1.417 -1.637,0 -25.994,0 0,-15.307 25.994,0 1.637,0 0.817,-1.418 12.997,-22.51 L 0,0 Z"
         style="fill:none;fill-opacity:1;fill-rule:nonzero;stroke:#0000ff;stroke-width:0.28346457;stroke-miterlimit:4;stroke-dasharray:none"
         id="path46"
         inkscape:connector-curvature="0" /></g><g
       id="g48"
       transform="translate(1353.55,693.6995)"
       style="fill:none;stroke:#0000ff;stroke-width:0.28346457;stroke-miterlimit:4;stroke-dasharray:none"><path
         d="m 0,0 13,-22.501 0.818,-1.418 -0.818,-1.418 -13.001,-22.517 13.265,-7.659 13.003,22.523 0.818,1.417 1.637,0 25.994,0 0,15.307 -25.994,0 -1.637,0 -0.818,1.417 L 13.271,7.662 0,0 Z"
         style="fill:none;fill-opacity:1;fill-rule:nonzero;stroke:#0000ff;stroke-width:0.28346457;stroke-miterlimit:4;stroke-dasharray:none"
         id="path50"
         inkscape:connector-curvature="0" /></g><g
       id="g52"
       transform="translate(1115.3289,645.8533)"
       style="fill:none;stroke:#0000ff;stroke-width:0.28346457;stroke-miterlimit:4;stroke-dasharray:none"><path
         d="m 0,0 -13,22.501 -0.819,1.418 0.819,1.417 13,22.518 -13.264,7.658 -13.004,-22.522 -0.818,-1.417 -1.637,0 -25.993,0 0,-15.307 25.993,0 1.637,0 0.818,-1.418 12.997,-22.51 L 0,0 Z"
         style="fill:none;fill-opacity:1;fill-rule:nonzero;stroke:#0000ff;stroke-width:0.28346457;stroke-miterlimit:4;stroke-dasharray:none"
         id="path54"
         inkscape:connector-curvature="0" /></g><g
       id="g56"
       transform="translate(1540.656,645.8533)"
       style="fill:none;stroke:#0000ff;stroke-width:0.28346457;stroke-miterlimit:4;stroke-dasharray:none"><path
         d="m 0,0 -13,22.501 -0.818,1.418 0.818,1.417 13,22.518 -13.264,7.658 -13.004,-22.522 -0.818,-1.417 -1.636,0 -25.994,0 0,-15.307 25.994,0 1.636,0 0.818,-1.418 12.997,-22.51 L 0,0 Z"
         style="fill:none;fill-opacity:1;fill-rule:nonzero;stroke:#0000ff;stroke-width:0.28346457;stroke-miterlimit:4;stroke-dasharray:none"
         id="path58"
         inkscape:connector-curvature="0" /></g><g
       id="g60"
       transform="translate(715.5593,1062.0212)"
       style="fill:none;stroke:#0000ff;stroke-width:0.28346457;stroke-miterlimit:4;stroke-dasharray:none"><path
         d="M 0,0 13,-22.501 13.818,-23.919 13,-25.336 0,-47.854 l 13.264,-7.659 13.004,22.523 0.818,1.417 1.636,0 25.994,0 0,15.307 -25.994,0 -1.636,0 -0.818,1.417 L 13.271,7.662 0,0 Z"
         style="fill:none;fill-opacity:1;fill-rule:nonzero;stroke:#0000ff;stroke-width:0.28346457;stroke-miterlimit:4;stroke-dasharray:none"
         id="path62"
         inkscape:connector-curvature="0" /></g><g
       id="g64"
       transform="translate(477.3382,1014.1751)"
       style="fill:none;stroke:#0000ff;stroke-width:0.28346457;stroke-miterlimit:4;stroke-dasharray:none"><path
         d="M 0,0 -13.818,23.919 0,47.854 l -13.264,7.659 -13.821,-23.94 -27.631,0 0,-15.307 27.631,0 L -13.271,-7.662 0,0 Z"
         style="fill:none;fill-opacity:1;fill-rule:nonzero;stroke:#0000ff;stroke-width:0.28346457;stroke-miterlimit:4;stroke-dasharray:none"
         id="path66"
         inkscape:connector-curvature="0" /></g><g
       id="g68"
       transform="translate(1140.8865,1062.0212)"
       style="fill:none;stroke:#0000ff;stroke-width:0.28346457;stroke-miterlimit:4;stroke-dasharray:none"><path
         d="m 0,0 12.999,-22.501 0.819,-1.418 -0.818,-1.417 -13.001,-22.518 13.265,-7.659 13.003,22.523 0.818,1.417 1.637,0 25.994,0 0,15.307 -25.994,0 -1.637,0 -0.818,1.417 L 13.271,7.662 0,0 Z"
         style="fill:none;fill-opacity:1;fill-rule:nonzero;stroke:#0000ff;stroke-width:0.28346457;stroke-miterlimit:4;stroke-dasharray:none"
         id="path70"
         inkscape:connector-curvature="0" /></g><g
       id="g72"
       transform="translate(902.6648,1014.1751)"
       style="fill:none;stroke:#0000ff;stroke-width:0.28346457;stroke-miterlimit:4;stroke-dasharray:none"><path
         d="m 0,0 -12.999,22.501 -0.819,1.418 0.818,1.417 13.001,22.518 -13.265,7.659 -13.003,-22.523 -0.818,-1.417 -1.637,0 -25.994,0 0,-15.307 25.994,0 1.637,0 0.818,-1.418 12.996,-22.51 L 0,0 Z"
         style="fill:none;fill-opacity:1;fill-rule:nonzero;stroke:#0000ff;stroke-width:0.28346457;stroke-miterlimit:4;stroke-dasharray:none"
         id="path74"
         inkscape:connector-curvature="0" /></g><g
       id="g76"
       transform="translate(1566.2136,1062.0212)"
       style="fill:none;stroke:#0000ff;stroke-width:0.28346457;stroke-miterlimit:4;stroke-dasharray:none"><path
         d="m 0,0 13,-22.501 0.818,-1.418 -0.818,-1.417 -13.001,-22.518 13.265,-7.659 13.003,22.523 0.818,1.417 1.637,0 25.994,0 0,15.307 -25.994,0 -1.637,0 -0.818,1.417 L 13.271,7.662 0,0 Z"
         style="fill:none;fill-opacity:1;fill-rule:nonzero;stroke:#0000ff;stroke-width:0.28346457;stroke-miterlimit:4;stroke-dasharray:none"
         id="path78"
         inkscape:connector-curvature="0" /></g><g
       id="g80"
       transform="translate(1327.9924,1014.1751)"
       style="fill:none;stroke:#0000ff;stroke-width:0.28346457;stroke-miterlimit:4;stroke-dasharray:none"><path
         d="m 0,0 -13,22.501 -0.818,1.418 0.818,1.417 13,22.518 -13.264,7.659 -13.004,-22.523 -0.818,-1.417 -1.636,0 -25.994,0 0,-15.307 25.994,0 1.636,0 0.818,-1.418 12.997,-22.51 L 0,0 Z"
         style="fill:none;fill-opacity:1;fill-rule:nonzero;stroke:#0000ff;stroke-width:0.28346457;stroke-miterlimit:4;stroke-dasharray:none"
         id="path82"
         inkscape:connector-curvature="0" /></g><g
       id="g84"
       transform="translate(928.2229,939.2484)"
       style="fill:none;stroke:#0000ff;stroke-width:0.28346457;stroke-miterlimit:4;stroke-dasharray:none"><path
         d="M 0,0 13,-22.501 13.818,-23.919 13,-25.337 0,-47.854 l 13.264,-7.659 13.004,22.523 0.818,1.417 1.636,0 25.994,0 0,15.307 -25.994,0 -1.636,0 -0.818,1.417 L 13.271,7.662 0,0 Z"
         style="fill:none;fill-opacity:1;fill-rule:nonzero;stroke:#0000ff;stroke-width:0.28346457;stroke-miterlimit:4;stroke-dasharray:none"
         id="path86"
         inkscape:connector-curvature="0" /></g><g
       id="g88"
       transform="translate(502.8953,939.2484)"
       style="fill:none;stroke:#0000ff;stroke-width:0.28346457;stroke-miterlimit:4;stroke-dasharray:none"><path
         d="M 0,0 13.818,-23.919 0,-47.854 l 13.264,-7.659 13.822,23.94 27.63,0 0,15.307 -27.63,0 L 13.271,7.662 0,0 Z"
         style="fill:none;fill-opacity:1;fill-rule:nonzero;stroke:#0000ff;stroke-width:0.28346457;stroke-miterlimit:4;stroke-dasharray:none"
         id="path90"
         inkscape:connector-curvature="0" /></g><g
       id="g92"
       transform="translate(690.0017,891.4022)"
       style="fill:none;stroke:#0000ff;stroke-width:0.28346457;stroke-miterlimit:4;stroke-dasharray:none"><path
         d="m 0,0 -13,22.501 -0.818,1.418 0.818,1.417 13,22.518 -13.264,7.658 -13.004,-22.522 -0.817,-1.417 -1.637,0 -25.994,0 0,-15.307 25.994,0 1.637,0 0.817,-1.418 12.997,-22.51 L 0,0 Z"
         style="fill:none;fill-opacity:1;fill-rule:nonzero;stroke:#0000ff;stroke-width:0.28346457;stroke-miterlimit:4;stroke-dasharray:none"
         id="path94"
         inkscape:connector-curvature="0" /></g><g
       id="g96"
       transform="translate(1353.55,939.2484)"
       style="fill:none;stroke:#0000ff;stroke-width:0.28346457;stroke-miterlimit:4;stroke-dasharray:none"><path
         d="m 0,0 13,-22.501 0.818,-1.418 -0.818,-1.418 -13.001,-22.517 13.265,-7.659 13.003,22.523 0.818,1.417 1.637,0 25.994,0 0,15.307 -25.994,0 -1.637,0 -0.818,1.417 L 13.271,7.662 0,0 Z"
         style="fill:none;fill-opacity:1;fill-rule:nonzero;stroke:#0000ff;stroke-width:0.28346457;stroke-miterlimit:4;stroke-dasharray:none"
         id="path98"
         inkscape:connector-curvature="0" /></g><g
       id="g100"
       transform="translate(1115.3289,891.4022)"
       style="fill:none;stroke:#0000ff;stroke-width:0.28346457;stroke-miterlimit:4;stroke-dasharray:none"><path
         d="m 0,0 -13,22.501 -0.819,1.418 0.819,1.417 13,22.518 -13.264,7.658 -13.004,-22.522 -0.818,-1.417 -1.637,0 -25.993,0 0,-15.307 25.993,0 1.637,0 0.818,-1.418 12.997,-22.51 L 0,0 Z"
         style="fill:none;fill-opacity:1;fill-rule:nonzero;stroke:#0000ff;stroke-width:0.28346457;stroke-miterlimit:4;stroke-dasharray:none"
         id="path102"
         inkscape:connector-curvature="0" /></g><g
       id="g104"
       transform="translate(1540.656,891.4022)"
       style="fill:none;stroke:#0000ff;stroke-width:0.28346457;stroke-miterlimit:4;stroke-dasharray:none"><path
         d="m 0,0 -13,22.501 -0.818,1.418 0.818,1.417 13,22.518 -13.264,7.658 -13.004,-22.522 -0.818,-1.417 -1.636,0 -25.994,0 0,-15.307 25.994,0 1.636,0 0.818,-1.418 12.997,-22.51 L 0,0 Z"
         style="fill:none;fill-opacity:1;fill-rule:nonzero;stroke:#0000ff;stroke-width:0.28346457;stroke-miterlimit:4;stroke-dasharray:none"
         id="path106"
         inkscape:connector-curvature="0" /></g><g
       id="g108"
       transform="translate(715.5593,325.3763)"
       style="fill:none;stroke:#0000ff;stroke-width:0.28346457;stroke-miterlimit:4;stroke-dasharray:none"><path
         d="M 0,0 13,-22.501 13.818,-23.919 13,-25.337 0,-47.854 l 13.264,-7.659 13.004,22.523 0.818,1.417 1.636,0 25.994,0 0,15.307 -25.994,0 -1.636,0 -0.818,1.417 L 13.271,7.662 0,0 Z"
         style="fill:none;fill-opacity:1;fill-rule:nonzero;stroke:#0000ff;stroke-width:0.28346457;stroke-miterlimit:4;stroke-dasharray:none"
         id="path110"
         inkscape:connector-curvature="0" /></g><g
       id="g112"
       transform="translate(477.3382,277.5301)"
       style="fill:none;stroke:#0000ff;stroke-width:0.28346457;stroke-miterlimit:4;stroke-dasharray:none"><path
         d="m 0,0 -13,22.501 -0.818,1.418 0.818,1.417 13,22.518 -13.264,7.658 -13.004,-22.522 -0.817,-1.417 -1.637,0 -25.994,0 0,-15.307 25.994,0 1.637,0 0.817,-1.418 12.997,-22.51 L 0,0 Z"
         style="fill:none;fill-opacity:1;fill-rule:nonzero;stroke:#0000ff;stroke-width:0.28346457;stroke-miterlimit:4;stroke-dasharray:none"
         id="path114"
         inkscape:connector-curvature="0" /></g><g
       id="g116"
       transform="translate(1140.8865,325.3763)"
       style="fill:none;stroke:#0000ff;stroke-width:0.28346457;stroke-miterlimit:4;stroke-dasharray:none"><path
         d="m 0,0 12.999,-22.501 0.819,-1.418 -0.818,-1.418 -13.001,-22.517 13.265,-7.659 13.003,22.523 0.818,1.417 1.637,0 25.994,0 0,15.307 -25.994,0 -1.637,0 -0.818,1.417 L 13.271,7.662 0,0 Z"
         style="fill:none;fill-opacity:1;fill-rule:nonzero;stroke:#0000ff;stroke-width:0.28346457;stroke-miterlimit:4;stroke-dasharray:none"
         id="path118"
         inkscape:connector-curvature="0" /></g><g
       id="g120"
       transform="translate(902.6648,277.5301)"
       style="fill:none;stroke:#0000ff;stroke-width:0.28346457;stroke-miterlimit:4;stroke-dasharray:none"><path
         d="m 0,0 -12.999,22.501 -0.819,1.418 0.818,1.417 13.001,22.518 -13.265,7.658 -13.003,-22.522 -0.818,-1.417 -1.637,0 -25.994,0 0,-15.307 25.994,0 1.637,0 0.818,-1.418 12.996,-22.51 L 0,0 Z"
         style="fill:none;fill-opacity:1;fill-rule:nonzero;stroke:#0000ff;stroke-width:0.28346457;stroke-miterlimit:4;stroke-dasharray:none"
         id="path122"
         inkscape:connector-curvature="0" /></g><g
       id="g124"
       transform="translate(1566.2136,325.3763)"
       style="fill:none;stroke:#0000ff;stroke-width:0.28346457;stroke-miterlimit:4;stroke-dasharray:none"><path
         d="m 0,0 13,-22.501 0.818,-1.418 -0.818,-1.418 -13.001,-22.517 13.265,-7.659 13.003,22.523 0.818,1.417 1.637,0 25.994,0 0,15.307 -25.994,0 -1.637,0 -0.818,1.417 L 13.271,7.662 0,0 Z"
         style="fill:none;fill-opacity:1;fill-rule:nonzero;stroke:#0000ff;stroke-width:0.28346457;stroke-miterlimit:4;stroke-dasharray:none"
         id="path126"
         inkscape:connector-curvature="0" /></g><g
       id="g128"
       transform="translate(1327.9924,277.5301)"
       style="fill:none;stroke:#0000ff;stroke-width:0.28346457;stroke-miterlimit:4;stroke-dasharray:none"><path
         d="m 0,0 -13,22.501 -0.818,1.418 0.818,1.417 13,22.518 -13.264,7.658 -13.004,-22.522 -0.818,-1.417 -1.636,0 -25.994,0 0,-15.307 25.994,0 1.636,0 0.818,-1.418 12.997,-22.51 L 0,0 Z"
         style="fill:none;fill-opacity:1;fill-rule:nonzero;stroke:#0000ff;stroke-width:0.28346457;stroke-miterlimit:4;stroke-dasharray:none"
         id="path130"
         inkscape:connector-curvature="0" /></g><g
       id="g132"
       transform="translate(928.2229,202.6028)"
       style="fill:none;stroke:#0000ff;stroke-width:0.28346457;stroke-miterlimit:4;stroke-dasharray:none"><path
         d="M 0,0 13,-22.501 13.818,-23.918 13,-25.336 0,-47.854 l 13.264,-7.658 13.004,22.522 0.818,1.417 1.636,0 25.994,0 0,15.307 -25.994,0 -1.636,0 -0.818,1.418 L 13.271,7.662 0,0 Z"
         style="fill:none;fill-opacity:1;fill-rule:nonzero;stroke:#0000ff;stroke-width:0.28346457;stroke-miterlimit:4;stroke-dasharray:none"
         id="path134"
         inkscape:connector-curvature="0" /></g><g
       id="g136"
       transform="translate(502.8953,202.6028)"
       style="fill:none;stroke:#0000ff;stroke-width:0.28346457;stroke-miterlimit:4;stroke-dasharray:none"><path
         d="M 0,0 12.999,-22.501 13.818,-23.918 13,-25.336 0,-47.854 l 13.264,-7.658 13.004,22.522 0.818,1.417 1.636,0 25.994,0 0,15.307 -25.994,0 -1.636,0 -0.818,1.418 L 13.271,7.662 0,0 Z"
         style="fill:none;fill-opacity:1;fill-rule:nonzero;stroke:#0000ff;stroke-width:0.28346457;stroke-miterlimit:4;stroke-dasharray:none"
         id="path138"
         inkscape:connector-curvature="0" /></g><g
       id="g140"
       transform="translate(690.0017,154.7571)"
       style="fill:none;stroke:#0000ff;stroke-width:0.28346457;stroke-miterlimit:4;stroke-dasharray:none"><path
         d="m 0,0 -13,22.501 -0.818,1.417 0.818,1.418 13,22.518 -13.264,7.658 -13.004,-22.522 -0.817,-1.417 -1.637,0 -25.994,0 0,-15.307 25.994,0 1.637,0 0.817,-1.418 12.997,-22.51 L 0,0 Z"
         style="fill:none;fill-opacity:1;fill-rule:nonzero;stroke:#0000ff;stroke-width:0.28346457;stroke-miterlimit:4;stroke-dasharray:none"
         id="path142"
         inkscape:connector-curvature="0" /></g><g
       id="g144"
       transform="translate(1353.55,202.6028)"
       style="fill:none;stroke:#0000ff;stroke-width:0.28346457;stroke-miterlimit:4;stroke-dasharray:none"><path
         d="m 0,0 13,-22.501 0.818,-1.417 -0.818,-1.418 -13.001,-22.518 13.265,-7.658 13.003,22.522 0.818,1.417 1.637,0 25.994,0 0,15.307 -25.994,0 -1.637,0 -0.818,1.418 L 13.271,7.662 0,0 Z"
         style="fill:none;fill-opacity:1;fill-rule:nonzero;stroke:#0000ff;stroke-width:0.28346457;stroke-miterlimit:4;stroke-dasharray:none"
         id="path146"
         inkscape:connector-curvature="0" /></g><g
       id="g148"
       transform="translate(1115.3289,154.7571)"
       style="fill:none;stroke:#0000ff;stroke-width:0.28346457;stroke-miterlimit:4;stroke-dasharray:none"><path
         d="m 0,0 -13,22.501 -0.819,1.417 0.819,1.418 13,22.518 -13.264,7.658 -13.004,-22.522 -0.818,-1.417 -1.637,0 -25.993,0 0,-15.307 25.993,0 1.637,0 0.818,-1.418 12.997,-22.51 L 0,0 Z"
         style="fill:none;fill-opacity:1;fill-rule:nonzero;stroke:#0000ff;stroke-width:0.28346457;stroke-miterlimit:4;stroke-dasharray:none"
         id="path150"
         inkscape:connector-curvature="0" /></g><g
       id="g152"
       transform="translate(1540.656,154.7571)"
       style="fill:none;stroke:#0000ff;stroke-width:0.28346457;stroke-miterlimit:4;stroke-dasharray:none"><path
         d="m 0,0 -13,22.501 -0.818,1.417 0.818,1.418 13,22.518 -13.264,7.658 -13.004,-22.522 -0.818,-1.417 -1.636,0 -25.994,0 0,-15.307 25.994,0 1.636,0 0.818,-1.418 12.997,-22.51 L 0,0 Z"
         style="fill:none;fill-opacity:1;fill-rule:nonzero;stroke:#0000ff;stroke-width:0.28346457;stroke-miterlimit:4;stroke-dasharray:none"
         id="path154"
         inkscape:connector-curvature="0" /></g><g
       id="g156"
       transform="translate(715.5593,570.9246)"
       style="fill:none;stroke:#0000ff;stroke-width:0.28346457;stroke-miterlimit:4;stroke-dasharray:none"><path
         d="M 0,0 13,-22.501 13.818,-23.919 13,-25.337 0,-47.854 l 13.264,-7.659 13.004,22.523 0.818,1.417 1.636,0 25.994,0 0,15.307 -25.994,0 -1.636,0 -0.818,1.417 L 13.271,7.662 0,0 Z"
         style="fill:none;fill-opacity:1;fill-rule:nonzero;stroke:#0000ff;stroke-width:0.28346457;stroke-miterlimit:4;stroke-dasharray:none"
         id="path158"
         inkscape:connector-curvature="0" /></g><g
       id="g160"
       transform="translate(477.3382,523.0784)"
       style="fill:none;stroke:#0000ff;stroke-width:0.28346457;stroke-miterlimit:4;stroke-dasharray:none"><path
         d="m 0,0 -13,22.501 -0.818,1.418 0.818,1.417 13,22.518 -13.264,7.658 -13.004,-22.522 -0.817,-1.417 -1.637,0 -25.994,0 0,-15.307 25.994,0 1.637,0 0.817,-1.418 12.997,-22.51 L 0,0 Z"
         style="fill:none;fill-opacity:1;fill-rule:nonzero;stroke:#0000ff;stroke-width:0.28346457;stroke-miterlimit:4;stroke-dasharray:none"
         id="path162"
         inkscape:connector-curvature="0" /></g><g
       id="g164"
       transform="translate(1140.8865,570.9246)"
       style="fill:none;stroke:#0000ff;stroke-width:0.28346457;stroke-miterlimit:4;stroke-dasharray:none"><path
         d="m 0,0 12.999,-22.501 0.819,-1.418 -0.818,-1.418 -13.001,-22.517 13.265,-7.659 13.003,22.523 0.818,1.417 1.637,0 25.994,0 0,15.307 -25.994,0 -1.637,0 -0.818,1.417 L 13.271,7.662 0,0 Z"
         style="fill:none;fill-opacity:1;fill-rule:nonzero;stroke:#0000ff;stroke-width:0.28346457;stroke-miterlimit:4;stroke-dasharray:none"
         id="path166"
         inkscape:connector-curvature="0" /></g><g
       id="g168"
       transform="translate(902.6648,523.0784)"
       style="fill:none;stroke:#0000ff;stroke-width:0.28346457;stroke-miterlimit:4;stroke-dasharray:none"><path
         d="m 0,0 -12.999,22.501 -0.819,1.418 0.818,1.417 13.001,22.518 -13.265,7.658 -13.003,-22.522 -0.818,-1.417 -1.637,0 -25.994,0 0,-15.307 25.994,0 1.637,0 0.818,-1.418 12.996,-22.51 L 0,0 Z"
         style="fill:none;fill-opacity:1;fill-rule:nonzero;stroke:#0000ff;stroke-width:0.28346457;stroke-miterlimit:4;stroke-dasharray:none"
         id="path170"
         inkscape:connector-curvature="0" /></g><g
       id="g172"
       transform="translate(1566.2136,570.9246)"
       style="fill:none;stroke:#0000ff;stroke-width:0.28346457;stroke-miterlimit:4;stroke-dasharray:none"><path
         d="m 0,0 13,-22.501 0.818,-1.418 -0.818,-1.418 -13.001,-22.517 13.265,-7.659 13.003,22.523 0.818,1.417 1.637,0 25.994,0 0,15.307 -25.994,0 -1.637,0 -0.818,1.417 L 13.271,7.662 0,0 Z"
         style="fill:none;fill-opacity:1;fill-rule:nonzero;stroke:#0000ff;stroke-width:0.28346457;stroke-miterlimit:4;stroke-dasharray:none"
         id="path174"
         inkscape:connector-curvature="0" /></g><g
       id="g176"
       transform="translate(1327.9924,523.0784)"
       style="fill:none;stroke:#0000ff;stroke-width:0.28346457;stroke-miterlimit:4;stroke-dasharray:none"><path
         d="m 0,0 -13,22.501 -0.818,1.418 0.818,1.417 13,22.518 -13.264,7.658 -13.004,-22.522 -0.818,-1.417 -1.636,0 -25.994,0 0,-15.307 25.994,0 1.636,0 0.818,-1.418 12.997,-22.51 L 0,0 Z"
         style="fill:none;fill-opacity:1;fill-rule:nonzero;stroke:#0000ff;stroke-width:0.28346457;stroke-miterlimit:4;stroke-dasharray:none"
         id="path178"
         inkscape:connector-curvature="0" /></g><g
       id="g180"
       transform="translate(928.2229,448.1512)"
       style="fill:none;stroke:#0000ff;stroke-width:0.28346457;stroke-miterlimit:4;stroke-dasharray:none"><path
         d="M 0,0 13,-22.501 13.818,-23.918 13,-25.336 0,-47.854 l 13.264,-7.658 13.004,22.522 0.818,1.417 1.636,0 25.994,0 0,15.307 -25.994,0 -1.636,0 -0.818,1.418 L 13.271,7.662 0,0 Z"
         style="fill:none;fill-opacity:1;fill-rule:nonzero;stroke:#0000ff;stroke-width:0.28346457;stroke-miterlimit:4;stroke-dasharray:none"
         id="path182"
         inkscape:connector-curvature="0" /></g><g
       id="g184"
       transform="translate(502.8953,448.1512)"
       style="fill:none;stroke:#0000ff;stroke-width:0.28346457;stroke-miterlimit:4;stroke-dasharray:none"><path
         d="M 0,0 12.999,-22.501 13.818,-23.918 13,-25.336 0,-47.854 l 13.264,-7.658 13.004,22.522 0.818,1.417 1.636,0 25.994,0 0,15.307 -25.994,0 -1.636,0 -0.818,1.418 L 13.271,7.662 0,0 Z"
         style="fill:none;fill-opacity:1;fill-rule:nonzero;stroke:#0000ff;stroke-width:0.28346457;stroke-miterlimit:4;stroke-dasharray:none"
         id="path186"
         inkscape:connector-curvature="0" /></g><g
       id="g188"
       transform="translate(690.0017,400.3055)"
       style="fill:none;stroke:#0000ff;stroke-width:0.28346457;stroke-miterlimit:4;stroke-dasharray:none"><path
         d="m 0,0 -13,22.501 -0.818,1.417 0.818,1.418 13,22.518 -13.264,7.658 -13.004,-22.522 -0.817,-1.417 -1.637,0 -25.994,0 0,-15.307 25.994,0 1.637,0 0.817,-1.418 12.997,-22.51 L 0,0 Z"
         style="fill:none;fill-opacity:1;fill-rule:nonzero;stroke:#0000ff;stroke-width:0.28346457;stroke-miterlimit:4;stroke-dasharray:none"
         id="path190"
         inkscape:connector-curvature="0" /></g><g
       id="g192"
       transform="translate(1353.55,448.1512)"
       style="fill:none;stroke:#0000ff;stroke-width:0.28346457;stroke-miterlimit:4;stroke-dasharray:none"><path
         d="m 0,0 13,-22.501 0.818,-1.417 -0.818,-1.418 -13.001,-22.518 13.265,-7.658 13.003,22.522 0.818,1.417 1.637,0 25.994,0 0,15.307 -25.994,0 -1.637,0 -0.818,1.418 L 13.271,7.662 0,0 Z"
         style="fill:none;fill-opacity:1;fill-rule:nonzero;stroke:#0000ff;stroke-width:0.28346457;stroke-miterlimit:4;stroke-dasharray:none"
         id="path194"
         inkscape:connector-curvature="0" /></g><g
       id="g196"
       transform="translate(1115.3289,400.3055)"
       style="fill:none;stroke:#0000ff;stroke-width:0.28346457;stroke-miterlimit:4;stroke-dasharray:none"><path
         d="m 0,0 -13,22.501 -0.819,1.417 0.819,1.418 13,22.518 -13.264,7.658 -13.004,-22.522 -0.818,-1.417 -1.637,0 -25.993,0 0,-15.307 25.993,0 1.637,0 0.818,-1.418 12.997,-22.51 L 0,0 Z"
         style="fill:none;fill-opacity:1;fill-rule:nonzero;stroke:#0000ff;stroke-width:0.28346457;stroke-miterlimit:4;stroke-dasharray:none"
         id="path198"
         inkscape:connector-curvature="0" /></g><g
       id="g200"
       transform="translate(1540.656,400.3055)"
       style="fill:none;stroke:#0000ff;stroke-width:0.28346457;stroke-miterlimit:4;stroke-dasharray:none"><path
         d="m 0,0 -13,22.501 -0.818,1.417 0.818,1.418 13,22.518 -13.264,7.658 -13.004,-22.522 -0.818,-1.417 -1.636,0 -25.994,0 0,-15.307 25.994,0 1.636,0 0.818,-1.418 12.997,-22.51 L 0,0 Z"
         style="fill:none;fill-opacity:1;fill-rule:nonzero;stroke:#0000ff;stroke-width:0.28346457;stroke-miterlimit:4;stroke-dasharray:none"
         id="path202"
         inkscape:connector-curvature="0" /></g><path
       d="m 0,0 2040.94,0 0,1218.9 L 0,1218.9 0,0 Z"
       style="fill:none;fill-opacity:1;fill-rule:nonzero;stroke:#ffff00"
       id="path204"
       inkscape:connector-curvature="0" /></g></svg>