<?xml version="1.0" encoding="UTF-8" standalone="no"?>
<!-- Created with Inkscape (http://www.inkscape.org/) -->

<svg
   xmlns:dc="http://purl.org/dc/elements/1.1/"
   xmlns:cc="http://creativecommons.org/ns#"
   xmlns:rdf="http://www.w3.org/1999/02/22-rdf-syntax-ns#"
   xmlns:svg="http://www.w3.org/2000/svg"
   xmlns="http://www.w3.org/2000/svg"
   xmlns:sodipodi="http://sodipodi.sourceforge.net/DTD/sodipodi-0.dtd"
   xmlns:inkscape="http://www.inkscape.org/namespaces/inkscape"
   id="svg2"
   version="1.1"
   inkscape:version="0.91 r13725"
   xml:space="preserve"
   width="2551.175"
   height="1523.625"
   viewBox="0 0 2551.175 1523.625"
   sodipodi:docname="top-right.svg"><metadata
     id="metadata8"><rdf:RDF><cc:Work
         rdf:about=""><dc:format>image/svg+xml</dc:format><dc:type
           rdf:resource="http://purl.org/dc/dcmitype/StillImage" /><dc:title></dc:title></cc:Work></rdf:RDF></metadata><defs
     id="defs6" /><sodipodi:namedview
     pagecolor="#ffffff"
     bordercolor="#666666"
     borderopacity="1"
     objecttolerance="10"
     gridtolerance="10"
     guidetolerance="10"
     inkscape:pageopacity="0"
     inkscape:pageshadow="2"
     inkscape:window-width="1440"
     inkscape:window-height="852"
     id="namedview4"
     showgrid="false"
     inkscape:zoom="0.14385528"
     inkscape:cx="1275.5875"
     inkscape:cy="761.8125"
     inkscape:window-x="0"
     inkscape:window-y="0"
     inkscape:window-maximized="1"
     inkscape:current-layer="g10" /><g
     id="g10"
     inkscape:groupmode="layer"
     inkscape:label="top-right"
     transform="matrix(1.25,0,0,-1.25,0,1523.625)"><g
       id="g12"
       transform="translate(1060.0461,219.7811)"
       style="fill:none;stroke:#0000ff;stroke-width:0.28346457;stroke-miterlimit:4;stroke-dasharray:none"><path
         d="m 0,0 28.195,0 14.104,24.427 15.228,-8.793 38.268,66.282 -14.95,9.276 13.814,23.939 -13.819,23.919 13.271,7.662 13.815,-23.928 27.63,-0.01 0.572,0 0,-17.573 76.536,0 0,17.573 28.197,0 14.102,24.427 15.228,-8.793 38.267,66.282 -15.228,8.792 0.273,0.488 13.82,23.935 -13.819,23.919 13.271,7.662 13.815,-23.928 27.63,0 0.572,-0.01 0,-17.572 76.535,0 0,17.572 28.196,0 14.103,24.428 15.228,-8.793 38.268,66.281 -15.229,8.793 0.274,0.487 13.819,23.935 -13.818,23.919 13.271,7.662 13.814,-23.927 27.631,0 0.571,-0.01 0,-17.573 76.536,0 0,17.573 28.196,0 14.103,24.426 15.228,-8.792 38.268,66.282 -15.228,8.791 14.095,24.414 -14.1,24.42 15.233,8.796 -38.268,66.281 -15.233,-8.795 -14.098,24.421 -27.629,0 0,15.307 27.629,0 14.103,24.423 15.228,-8.792 38.268,66.282 -15.229,8.792 14.096,24.414 -14.1,24.421 15.233,8.794 -38.268,66.282 -15.233,-8.795 -14.098,24.419 -27.629,0 0,15.307 27.629,0 14.103,24.425 15.228,-8.792 20.687,35.831 -1508.932,0 20.684,-35.824 15.216,8.786 14.098,-24.418 27.63,0 0,-15.307 -27.62,0 -14.103,-24.428 -15.221,8.788 -38.269,-66.281 15.222,-8.788 -14.098,-24.42 14.094,-24.412 -15.218,-8.787 38.269,-66.281 15.216,8.787 0.284,-0.49 13.814,-23.928 27.63,0 0,-15.307 -27.619,0 -14.104,-24.429 -15.221,8.788 -38.269,-66.281 15.223,-8.789 -14.099,-24.42 14.094,-24.412 -15.218,-8.786 38.269,-66.281 15.217,8.786 14.103,-24.428 28.197,0 0,-17.573 76.535,0 0,17.573 0.567,0.002 27.631,0 13.821,23.94 13.264,-7.659 -13.818,-23.935 14.094,-24.414 -15.216,-8.785 38.268,-66.282 15.216,8.786 14.102,-24.428 28.199,0 0,-17.572 76.536,0 0,17.572 0.566,0.002 27.631,0 13.821,23.94 13.265,-7.658 -13.819,-23.935 13.818,-23.919 0.277,-0.495 -15.216,-8.785 38.268,-66.282 15.216,8.786 14.104,-24.428 28.197,0 0,-17.573 76.535,0 0,17.573 0.567,0 27.631,0.002 13.821,23.94 13.265,-7.658 -13.819,-23.935 14.094,-24.414 -15.215,-8.786 38.267,-66.281 15.216,8.785 14.103,-24.427 28.198,0 0,-17.573 76.536,0 L 0,0 Z"
         style="fill:none;fill-opacity:1;fill-rule:nonzero;stroke:#0000ff;stroke-width:0.28346457;stroke-miterlimit:4;stroke-dasharray:none"
         id="path14"
         inkscape:connector-curvature="0" /></g><path
       d="m 0,0 2040.94,0 0,1218.9 L 0,1218.9 0,0 Z"
       style="fill:none;fill-opacity:1;fill-rule:nonzero;stroke:#ffff00"
       id="path16"
       inkscape:connector-curvature="0" /></g></svg>