<?xml version="1.0" encoding="UTF-8" standalone="no"?>
<!-- Created with Inkscape (http://www.inkscape.org/) -->

<svg
   xmlns:dc="http://purl.org/dc/elements/1.1/"
   xmlns:cc="http://creativecommons.org/ns#"
   xmlns:rdf="http://www.w3.org/1999/02/22-rdf-syntax-ns#"
   xmlns:svg="http://www.w3.org/2000/svg"
   xmlns="http://www.w3.org/2000/svg"
   xmlns:sodipodi="http://sodipodi.sourceforge.net/DTD/sodipodi-0.dtd"
   xmlns:inkscape="http://www.inkscape.org/namespaces/inkscape"
   id="svg2"
   version="1.1"
   inkscape:version="0.91 r13725"
   xml:space="preserve"
   width="719.99829mm"
   height="430.00082mm"
   viewBox="0 0 2551.175 1523.625"
   sodipodi:docname="top-center.svg"><metadata
     id="metadata8"><rdf:RDF><cc:Work
         rdf:about=""><dc:format>image/svg+xml</dc:format><dc:type
           rdf:resource="http://purl.org/dc/dcmitype/StillImage" /><dc:title></dc:title></cc:Work></rdf:RDF></metadata><defs
     id="defs6" /><sodipodi:namedview
     pagecolor="#ffffff"
     bordercolor="#666666"
     borderopacity="1"
     objecttolerance="10"
     gridtolerance="10"
     guidetolerance="10"
     inkscape:pageopacity="0"
     inkscape:pageshadow="2"
     inkscape:window-width="1443"
     inkscape:window-height="859"
     id="namedview4"
     showgrid="false"
     units="mm"
     inkscape:document-units="mm"
     inkscape:zoom="0.14385528"
     inkscape:cx="1275.5875"
     inkscape:cy="761.8125"
     inkscape:window-x="0"
     inkscape:window-y="0"
     inkscape:window-maximized="0"
     inkscape:current-layer="g10" /><g
     id="g10"
     inkscape:groupmode="layer"
     inkscape:label="top-center"
     transform="matrix(1.25,0,0,-1.25,0,1523.625)"><g
       id="g12"
       transform="translate(1793.8318,145.4686)"
       style="stroke:#0000ff;fill:none;stroke-width:0.28346457;stroke-miterlimit:4;stroke-dasharray:none"><path
         d="m 0,0 -15.229,8.792 14.096,24.414 -14.1,24.421 15.233,8.794 -38.268,66.282 -15.232,-8.795 -14.099,24.42 -27.629,0 0,15.307 27.63,0 14.102,24.424 15.228,-8.792 38.268,66.281 -15.228,8.792 14.095,24.414 -14.1,24.421 15.233,8.795 -38.268,66.281 -15.232,-8.794 -14.098,24.418 -27.63,0 0,15.307 27.63,0 14.102,24.425 15.228,-8.792 38.268,66.282 -15.228,8.792 14.095,24.414 -14.1,24.42 L 0,557.519 -38.268,623.8 -53.5,615.005 l -14.099,24.42 -27.629,0 0,15.307 27.63,0 13.822,23.94 0.28,0.484 15.228,-8.792 38.268,66.281 -15.228,8.792 14.095,24.414 -14.1,24.421 15.233,8.794 -38.268,66.282 -15.232,-8.795 -14.098,24.419 -27.63,0 0,15.307 27.63,0 14.102,24.425 15.228,-8.792 20.687,35.831 -1508.931,0 20.683,-35.824 15.217,8.786 0.283,-0.491 13.815,-23.927 27.63,0 0,-15.307 -27.62,0 -14.103,-24.427 -15.222,8.788 -38.268,-66.282 15.222,-8.788 -14.099,-24.42 14.095,-24.413 -15.218,-8.785 38.268,-66.282 15.217,8.786 0.283,-0.49 13.815,-23.927 27.63,0 0,-15.307 -27.62,0 -14.103,-24.429 -15.222,8.788 -38.268,-66.281 15.222,-8.788 -14.099,-24.42 14.094,-24.412 -15.217,-8.787 38.268,-66.281 15.217,8.786 14.098,-24.419 27.63,0 0,-15.307 -27.621,0 -14.102,-24.428 -15.222,8.789 -38.268,-66.282 15.222,-8.788 -14.099,-24.42 14.094,-24.412 -15.217,-8.786 38.268,-66.282 15.217,8.787 14.098,-24.418 27.63,0 0,-15.308 -27.62,0 -14.103,-24.427 -15.222,8.788 -38.268,-66.282 15.222,-8.789 -14.099,-24.419 14.095,-24.413 -15.218,-8.785 17.585,-30.458 1508.931,0 L 0,0 Z"
         style="fill:none;fill-opacity:1;fill-rule:nonzero;stroke:#0000ff;stroke-width:0.28346457;stroke-miterlimit:4;stroke-dasharray:none"
         id="path14"
         inkscape:connector-curvature="0" /></g><path
       d="m 0,0 2040.94,0 0,1218.9 L 0,1218.9 0,0 Z"
       style="fill:none;fill-opacity:1;fill-rule:nonzero;stroke:#ffff00"
       id="path16"
       inkscape:connector-curvature="0" /></g></svg>